<svg width="100" height="100" xmlns="http://www.w3.org/2000/svg">
 <!-- Created with Method Draw - http://github.com/duopixel/Method-Draw/ -->

 <g>
  <title>background</title>
  <rect fill="none" id="canvas_background" height="102" width="102" y="-1" x="-1"/>
 </g>
 <g>
  <title>Layer 1</title>
  <path id="svg_3" d="m17.780445,78.588227c-4.796957,-0.641436 -6.451092,-5.122463 -3.591163,-7.807084c3.795488,-4.15195 11.914402,-6.950882 18.275667,-4.331106c0.126781,-14.620681 0.053609,-29.242159 0.073,-43.863195c15.861447,-2.366079 31.757186,-4.610465 47.624636,-6.95596c-0.034361,16.386548 -0.068725,32.773101 -0.103086,49.159642c-2.485792,4.956279 -10.518007,8.393151 -17.512017,6.85629c-4.16389,-0.921625 -5.162133,-4.895732 -2.843504,-7.330728c3.175129,-3.63225 9.084841,-6.126107 15.026011,-5.445748c1.695441,-0.126817 4.192093,1.902812 3.475493,-0.393218c0,-11.486079 -0.666666,-26.472148 -0.666666,-37.958221c-14.560135,2.167258 -27.815719,4.231573 -42.382591,6.375377c-0.049725,13.366311 -0.542891,30.234648 -0.79645,43.599321c-0.463523,4.059485 -5.733374,6.829084 -10.652694,7.91118c-1.943362,0.242323 -3.966863,0.392685 -5.926633,0.183448l-0.000003,0.000002z" stroke-width="null" stroke="#4c4c4c" fill="#4c4c4c"/>
 </g>
</svg>